<svg width="85" height="85" viewBox="0 0 85 85" fill="none" xmlns="http://www.w3.org/2000/svg">
<g clip-path="url(#clip0_512_6017)">
<path d="M58.4375 21.25H26.5625V37.1875H58.4375V21.25Z" stroke="white" stroke-width="4" stroke-linecap="round" stroke-linejoin="round"/>
<path d="M69.0625 71.7188V13.2812C69.0625 11.8142 67.8733 10.625 66.4062 10.625L18.5938 10.625C17.1267 10.625 15.9375 11.8142 15.9375 13.2813L15.9375 71.7188C15.9375 73.1858 17.1267 74.375 18.5938 74.375H66.4062C67.8733 74.375 69.0625 73.1858 69.0625 71.7188Z" stroke="white" stroke-width="4" stroke-linecap="round" stroke-linejoin="round"/>
<path d="M29.6615 51.3542C31.373 51.3542 32.7604 49.9667 32.7604 48.2552C32.7604 46.5437 31.373 45.1562 29.6615 45.1562C27.95 45.1562 26.5625 46.5437 26.5625 48.2552C26.5625 49.9667 27.95 51.3542 29.6615 51.3542Z" fill="#FFAC31"/>
<path d="M42.9427 51.3542C44.6542 51.3542 46.0417 49.9667 46.0417 48.2552C46.0417 46.5437 44.6542 45.1562 42.9427 45.1562C41.2312 45.1562 39.8438 46.5437 39.8438 48.2552C39.8438 49.9667 41.2312 51.3542 42.9427 51.3542Z" fill="#FFAC31"/>
<path d="M56.224 51.3542C57.9355 51.3542 59.3229 49.9667 59.3229 48.2552C59.3229 46.5437 57.9355 45.1562 56.224 45.1562C54.5125 45.1562 53.125 46.5437 53.125 48.2552C53.125 49.9667 54.5125 51.3542 56.224 51.3542Z" fill="#FFAC31"/>
<path d="M29.6615 64.6354C31.373 64.6354 32.7604 63.248 32.7604 61.5365C32.7604 59.825 31.373 58.4375 29.6615 58.4375C27.95 58.4375 26.5625 59.825 26.5625 61.5365C26.5625 63.248 27.95 64.6354 29.6615 64.6354Z" fill="#FFAC31"/>
<path d="M42.9427 64.6354C44.6542 64.6354 46.0417 63.248 46.0417 61.5365C46.0417 59.825 44.6542 58.4375 42.9427 58.4375C41.2312 58.4375 39.8438 59.825 39.8438 61.5365C39.8438 63.248 41.2312 64.6354 42.9427 64.6354Z" fill="#FFAC31"/>
<path d="M56.224 64.6354C57.9355 64.6354 59.3229 63.248 59.3229 61.5365C59.3229 59.825 57.9355 58.4375 56.224 58.4375C54.5125 58.4375 53.125 59.825 53.125 61.5365C53.125 63.248 54.5125 64.6354 56.224 64.6354Z" fill="#FFAC31"/>
</g>
<defs>
<clipPath id="clip0_512_6017">
<rect width="85" height="85" fill="white"/>
</clipPath>
</defs>
</svg>
