<svg width="77" height="77" viewBox="0 0 77 77" fill="none" xmlns="http://www.w3.org/2000/svg">
<path d="M64.5056 48.4033C64.3873 48.285 64.26 48.1814 64.1239 48.1015C62.2062 46.8941 60.0192 46.2844 57.8322 46.2844C54.8048 46.2844 51.7803 47.4386 49.472 49.7469L47.3768 51.8392V23.6807C47.3768 20.4254 44.7133 17.762 41.458 17.762C38.2027 17.762 35.5393 20.4254 35.5393 23.6807V36.702C34.4591 35.3762 32.8314 34.512 30.9877 34.512C29.7063 34.512 28.5255 34.9323 27.5578 35.6277L14.8118 43.0054C13.051 44.0353 11.8643 45.9263 11.8643 48.1074V57.8408C11.8643 68.4235 20.4405 76.9998 31.0233 76.9998C36.1489 76.9998 40.7922 74.9756 44.228 71.6966L44.231 71.7232L44.5594 71.3947C44.5654 71.3888 44.5713 71.3829 44.5742 71.3799L64.5027 51.4485C65.3461 50.6051 65.3461 49.2468 64.5056 48.4033ZM42.186 69.551C39.1527 72.4423 35.1871 74.0345 31.0233 74.0345C22.0919 74.0404 14.8236 66.7692 14.8236 57.8378V48.1044C14.8236 47.0627 15.377 46.1187 16.3063 45.5771L29.2802 38.0337C29.6353 37.7792 30.2213 37.4714 30.9848 37.4714C32.1685 37.4714 32.9084 38.1609 33.2458 38.5723L38.4986 45.006V23.6807C38.4986 22.0501 39.8274 20.7213 41.458 20.7213C43.0886 20.7213 44.4174 22.0501 44.4174 23.6807V53.2656C44.4174 54.5292 45.2164 55.5887 46.3321 56.006C46.8027 56.1835 47.3324 56.0681 47.6875 55.713L51.5613 51.8392C53.2363 50.1642 55.4618 49.2438 57.8293 49.2438C59.164 49.2438 60.4691 49.5397 61.6587 50.1079L42.186 69.551Z" fill="white"/>
<path d="M42.9379 0H39.9785V11.8375H42.9379V0Z" fill="#FFAC31"/>
<path d="M25.7625 5.88606L23.6699 7.97864L32.0401 16.3488L34.1327 14.2562L25.7625 5.88606Z" fill="#FFAC31"/>
<path d="M29.6207 22.1953H17.7832V25.1547H29.6207V22.1953Z" fill="#FFAC31"/>
<path d="M57.1485 5.88972L48.7783 14.2599L50.8709 16.3525L59.2411 7.98229L57.1485 5.88972Z" fill="#FFAC31"/>
<path d="M65.1334 22.1953H53.2959V25.1547H65.1334V22.1953Z" fill="#FFAC31"/>
</svg>
